<svg width="16" height="16" viewBox="0 0 16 16" fill="none" xmlns="http://www.w3.org/2000/svg">
<path d="M12.9737 0.858398H3.02635C2.46102 0.858398 1.91885 1.08329 1.5191 1.48361C1.11935 1.88393 0.894776 2.42688 0.894776 2.99301V3.82551C0.894674 4.11934 0.955146 4.41002 1.07241 4.67936V4.72205C1.17279 4.95044 1.31498 5.15798 1.49162 5.33398L5.86846 9.68859V14.3776C5.86822 14.4986 5.89875 14.6175 5.95718 14.7234C6.01561 14.8292 6.10001 14.9183 6.20241 14.9824C6.31548 15.0526 6.44596 15.0896 6.57899 15.0892C6.69021 15.0885 6.79973 15.0617 6.89872 15.0109L9.74083 13.5878C9.858 13.5287 9.95654 13.4382 10.0255 13.3264C10.0945 13.2147 10.1312 13.0859 10.1316 12.9546V9.68859L14.48 5.33398C14.6567 5.15798 14.7989 4.95044 14.8992 4.72205V4.67936C15.0263 4.41213 15.0965 4.12136 15.1053 3.82551V2.99301C15.1053 2.42688 14.8807 1.88393 14.481 1.48361C14.0812 1.08329 13.5391 0.858398 12.9737 0.858398ZM8.91662 8.89167C8.85077 8.95815 8.79867 9.037 8.76331 9.1237C8.72795 9.21039 8.71002 9.30322 8.71057 9.39686V12.5134L7.28951 13.2249V9.39686C7.29005 9.30322 7.27213 9.21039 7.23677 9.1237C7.20141 9.037 7.14931 8.95815 7.08346 8.89167L3.31767 5.12763H12.6824L8.91662 8.89167ZM13.6842 3.70455H2.31583V2.99301C2.31583 2.8043 2.39069 2.62332 2.52394 2.48988C2.65719 2.35644 2.83791 2.28148 3.02635 2.28148H12.9737C13.1622 2.28148 13.3429 2.35644 13.4761 2.48988C13.6094 2.62332 13.6842 2.8043 13.6842 2.99301V3.70455Z" fill="black"/>
</svg>
